ply
format ascii 1.0
element vertex 289
property float x
property float y
property float z
property float nx
property float ny
property float nz
property float s
property float t
element face 512
property list uchar uint vertex_indices
end_header
0.57735 0.57735 0.57735 0.57735 0.57735 0.57735 0.0 0.0
0.60131 0.60131 0.52615 0.60131 0.60131 0.52615 0.0 0.0625
0.62469 0.62469 0.46852 0.62469 0.62469 0.46852 0.0 0.125
0.64676 0.64676 0.40422 0.64676 0.64676 0.40422 0.0 0.1875
0.66666 0.66666 0.33333 0.66666 0.66666 0.33333 0.0 0.25
0.68348 0.68348 0.25630 0.68348 0.68348 0.25630 0.0 0.3125
0.69631 0.69631 0.17407 0.69631 0.69631 0.17407 0.0 0.375
0.70436 0.70436 0.08804 0.70436 0.70436 0.08804 0.0 0.4375
0.70710 0.70710 0.0 0.70710 0.70710 0.0 0.0 0.5
0.70436 0.70436 -0.0880 0.70436 0.70436 -0.0880 0.0 0.5625
0.69631 0.69631 -0.1740 0.69631 0.69631 -0.1740 0.0 0.625
0.68348 0.68348 -0.2563 0.68348 0.68348 -0.2563 0.0 0.6875
0.66666 0.66666 -0.3333 0.66666 0.66666 -0.3333 0.0 0.75
0.64676 0.64676 -0.4042 0.64676 0.64676 -0.4042 0.0 0.8125
0.62469 0.62469 -0.4685 0.62469 0.62469 -0.4685 0.0 0.875
0.60131 0.60131 -0.5261 0.60131 0.60131 -0.5261 0.0 0.9375
0.57735 0.57735 -0.5773 0.57735 0.57735 -0.5773 0.0 1.0
0.60131 0.52615 0.60131 0.60131 0.52615 0.60131 0.0625 0.0
0.62853 0.54997 0.54997 0.62853 0.54997 0.54997 0.0625 0.0625
0.65538 0.57346 0.49153 0.65538 0.57346 0.49153 0.0625 0.125
0.68100 0.59587 0.42562 0.68100 0.59587 0.42562 0.0625 0.1875
0.70436 0.61631 0.35218 0.70436 0.61631 0.35218 0.0625 0.25
0.72428 0.63375 0.27160 0.72428 0.63375 0.27160 0.0625 0.3125
0.73960 0.64715 0.18490 0.73960 0.64715 0.18490 0.0625 0.375
0.74926 0.65561 0.09365 0.74926 0.65561 0.09365 0.0625 0.4375
0.75257 0.65850 0.0 0.75257 0.65850 0.0 0.0625 0.5
0.74926 0.65561 -0.0936 0.74926 0.65561 -0.0936 0.0625 0.5625
0.73960 0.64715 -0.1849 0.73960 0.64715 -0.1849 0.0625 0.625
0.72428 0.63375 -0.2716 0.72428 0.63375 -0.2716 0.0625 0.6875
0.70436 0.61631 -0.3521 0.70436 0.61631 -0.3521 0.0625 0.75
0.68100 0.59587 -0.4256 0.68100 0.59587 -0.4256 0.0625 0.8125
0.65538 0.57346 -0.4915 0.65538 0.57346 -0.4915 0.0625 0.875
0.62853 0.54997 -0.5499 0.62853 0.54997 -0.5499 0.0625 0.9375
0.60131 0.52615 -0.6013 0.60131 0.52615 -0.6013 0.0625 1.0
0.62469 0.46852 0.62469 0.62469 0.46852 0.62469 0.125 0.0
0.65538 0.49153 0.57346 0.65538 0.49153 0.57346 0.125 0.0625
0.68599 0.51449 0.51449 0.68599 0.51449 0.51449 0.125 0.125
0.71554 0.53665 0.44721 0.71554 0.53665 0.44721 0.125 0.1875
0.74278 0.55708 0.37139 0.74278 0.55708 0.37139 0.125 0.25
0.76626 0.57469 0.28734 0.76626 0.57469 0.28734 0.125 0.3125
0.78446 0.58834 0.19611 0.78446 0.58834 0.19611 0.125 0.375
0.79602 0.59702 0.09950 0.79602 0.59702 0.09950 0.125 0.4375
0.8 0.60000 0.0 0.8 0.60000 0.0 0.125 0.5
0.79602 0.59702 -0.0995 0.79602 0.59702 -0.0995 0.125 0.5625
0.78446 0.58834 -0.1961 0.78446 0.58834 -0.1961 0.125 0.625
0.76626 0.57469 -0.2873 0.76626 0.57469 -0.2873 0.125 0.6875
0.74278 0.55708 -0.3713 0.74278 0.55708 -0.3713 0.125 0.75
0.71554 0.53665 -0.4472 0.71554 0.53665 -0.4472 0.125 0.8125
0.68599 0.51449 -0.5144 0.68599 0.51449 -0.5144 0.125 0.875
0.65538 0.49153 -0.5734 0.65538 0.49153 -0.5734 0.125 0.9375
0.62469 0.46852 -0.6246 0.62469 0.46852 -0.6246 0.125 1.0
0.64676 0.40422 0.64676 0.64676 0.40422 0.64676 0.1875 0.0
0.68100 0.42562 0.59587 0.68100 0.42562 0.59587 0.1875 0.0625
0.71554 0.44721 0.53665 0.71554 0.44721 0.53665 0.1875 0.125
0.74926 0.46829 0.46829 0.74926 0.46829 0.46829 0.1875 0.1875
0.78072 0.48795 0.39036 0.78072 0.48795 0.39036 0.1875 0.25
0.80812 0.50507 0.30304 0.80812 0.50507 0.30304 0.1875 0.3125
0.82956 0.51847 0.20739 0.82956 0.51847 0.20739 0.1875 0.375
0.84327 0.52704 0.10540 0.84327 0.52704 0.10540 0.1875 0.4375
0.84799 0.52999 0.0 0.84799 0.52999 0.0 0.1875 0.5
0.84327 0.52704 -0.1054 0.84327 0.52704 -0.1054 0.1875 0.5625
0.82956 0.51847 -0.2073 0.82956 0.51847 -0.2073 0.1875 0.625
0.80812 0.50507 -0.3030 0.80812 0.50507 -0.3030 0.1875 0.6875
0.78072 0.48795 -0.3903 0.78072 0.48795 -0.3903 0.1875 0.75
0.74926 0.46829 -0.4682 0.74926 0.46829 -0.4682 0.1875 0.8125
0.71554 0.44721 -0.5366 0.71554 0.44721 -0.5366 0.1875 0.875
0.68100 0.42562 -0.5958 0.68100 0.42562 -0.5958 0.1875 0.9375
0.64676 0.40422 -0.6467 0.64676 0.40422 -0.6467 0.1875 1.0
0.66666 0.33333 0.66666 0.66666 0.33333 0.66666 0.25 0.0
0.70436 0.35218 0.61631 0.70436 0.35218 0.61631 0.25 0.0625
0.74278 0.37139 0.55708 0.74278 0.37139 0.55708 0.25 0.125
0.78072 0.39036 0.48795 0.78072 0.39036 0.48795 0.25 0.1875
0.81649 0.40824 0.40824 0.81649 0.40824 0.40824 0.25 0.25
0.84799 0.42399 0.31799 0.84799 0.42399 0.31799 0.25 0.3125
0.87287 0.43643 0.21821 0.87287 0.43643 0.21821 0.25 0.375
0.88888 0.44444 0.11111 0.88888 0.44444 0.11111 0.25 0.4375
0.89442 0.44721 0.0 0.89442 0.44721 0.0 0.25 0.5
0.88888 0.44444 -0.1111 0.88888 0.44444 -0.1111 0.25 0.5625
0.87287 0.43643 -0.2182 0.87287 0.43643 -0.2182 0.25 0.625
0.84799 0.42399 -0.3179 0.84799 0.42399 -0.3179 0.25 0.6875
0.81649 0.40824 -0.4082 0.81649 0.40824 -0.4082 0.25 0.75
0.78072 0.39036 -0.4879 0.78072 0.39036 -0.4879 0.25 0.8125
0.74278 0.37139 -0.5570 0.74278 0.37139 -0.5570 0.25 0.875
0.70436 0.35218 -0.6163 0.70436 0.35218 -0.6163 0.25 0.9375
0.66666 0.33333 -0.6666 0.66666 0.33333 -0.6666 0.25 1.0
0.68348 0.25630 0.68348 0.68348 0.25630 0.68348 0.3125 0.0
0.72428 0.27160 0.63375 0.72428 0.27160 0.63375 0.3125 0.0625
0.76626 0.28734 0.57469 0.76626 0.28734 0.57469 0.3125 0.125
0.80812 0.30304 0.50507 0.80812 0.30304 0.50507 0.3125 0.1875
0.84799 0.31799 0.42399 0.84799 0.31799 0.42399 0.3125 0.25
0.88345 0.33129 0.33129 0.88345 0.33129 0.33129 0.3125 0.3125
0.91168 0.34188 0.22792 0.91168 0.34188 0.22792 0.3125 0.375
0.92998 0.34874 0.11624 0.92998 0.34874 0.11624 0.3125 0.4375
0.93632 0.35112 0.0 0.93632 0.35112 0.0 0.3125 0.5
0.92998 0.34874 -0.1162 0.92998 0.34874 -0.1162 0.3125 0.5625
0.91168 0.34188 -0.2279 0.91168 0.34188 -0.2279 0.3125 0.625
0.88345 0.33129 -0.3312 0.88345 0.33129 -0.3312 0.3125 0.6875
0.84799 0.31799 -0.4239 0.84799 0.31799 -0.4239 0.3125 0.75
0.80812 0.30304 -0.5050 0.80812 0.30304 -0.5050 0.3125 0.8125
0.76626 0.28734 -0.5746 0.76626 0.28734 -0.5746 0.3125 0.875
0.72428 0.27160 -0.6337 0.72428 0.27160 -0.6337 0.3125 0.9375
0.68348 0.25630 -0.6834 0.68348 0.25630 -0.6834 0.3125 1.0
0.69631 0.17407 0.69631 0.69631 0.17407 0.69631 0.375 0.0
0.73960 0.18490 0.64715 0.73960 0.18490 0.64715 0.375 0.0625
0.78446 0.19611 0.58834 0.78446 0.19611 0.58834 0.375 0.125
0.82956 0.20739 0.51847 0.82956 0.20739 0.51847 0.375 0.1875
0.87287 0.21821 0.43643 0.87287 0.21821 0.43643 0.375 0.25
0.91168 0.22792 0.34188 0.91168 0.22792 0.34188 0.375 0.3125
0.94280 0.23570 0.23570 0.94280 0.23570 0.23570 0.375 0.375
0.96308 0.24077 0.12038 0.96308 0.24077 0.12038 0.375 0.4375
0.97014 0.24253 0.0 0.97014 0.24253 0.0 0.375 0.5
0.96308 0.24077 -0.1203 0.96308 0.24077 -0.1203 0.375 0.5625
0.94280 0.23570 -0.2357 0.94280 0.23570 -0.2357 0.375 0.625
0.91168 0.22792 -0.3418 0.91168 0.22792 -0.3418 0.375 0.6875
0.87287 0.21821 -0.4364 0.87287 0.21821 -0.4364 0.375 0.75
0.82956 0.20739 -0.5184 0.82956 0.20739 -0.5184 0.375 0.8125
0.78446 0.19611 -0.5883 0.78446 0.19611 -0.5883 0.375 0.875
0.73960 0.18490 -0.6471 0.73960 0.18490 -0.6471 0.375 0.9375
0.69631 0.17407 -0.6963 0.69631 0.17407 -0.6963 0.375 1.0
0.70436 0.08804 0.70436 0.70436 0.08804 0.70436 0.4375 0.0
0.74926 0.09365 0.65561 0.74926 0.09365 0.65561 0.4375 0.0625
0.79602 0.09950 0.59702 0.79602 0.09950 0.59702 0.4375 0.125
0.84327 0.10540 0.52704 0.84327 0.10540 0.52704 0.4375 0.1875
0.88888 0.11111 0.44444 0.88888 0.11111 0.44444 0.4375 0.25
0.92998 0.11624 0.34874 0.92998 0.11624 0.34874 0.4375 0.3125
0.96308 0.12038 0.24077 0.96308 0.12038 0.24077 0.4375 0.375
0.98473 0.12309 0.12309 0.98473 0.12309 0.12309 0.4375 0.4375
0.99227 0.12403 0.0 0.99227 0.12403 0.0 0.4375 0.5
0.98473 0.12309 -0.1230 0.98473 0.12309 -0.1230 0.4375 0.5625
0.96308 0.12038 -0.2407 0.96308 0.12038 -0.2407 0.4375 0.625
0.92998 0.11624 -0.3487 0.92998 0.11624 -0.3487 0.4375 0.6875
0.88888 0.11111 -0.4444 0.88888 0.11111 -0.4444 0.4375 0.75
0.84327 0.10540 -0.5270 0.84327 0.10540 -0.5270 0.4375 0.8125
0.79602 0.09950 -0.5970 0.79602 0.09950 -0.5970 0.4375 0.875
0.74926 0.09365 -0.6556 0.74926 0.09365 -0.6556 0.4375 0.9375
0.70436 0.08804 -0.7043 0.70436 0.08804 -0.7043 0.4375 1.0
0.70710 0.0 0.70710 0.70710 0.0 0.70710 0.5 0.0
0.75257 0.0 0.65850 0.75257 0.0 0.65850 0.5 0.0625
0.8 0.0 0.60000 0.8 0.0 0.60000 0.5 0.125
0.84799 0.0 0.52999 0.84799 0.0 0.52999 0.5 0.1875
0.89442 0.0 0.44721 0.89442 0.0 0.44721 0.5 0.25
0.93632 0.0 0.35112 0.93632 0.0 0.35112 0.5 0.3125
0.97014 0.0 0.24253 0.97014 0.0 0.24253 0.5 0.375
0.99227 0.0 0.12403 0.99227 0.0 0.12403 0.5 0.4375
1.0 0.0 0.0 1.0 0.0 0.0 0.5 0.5
0.99227 0.0 -0.1240 0.99227 0.0 -0.1240 0.5 0.5625
0.97014 0.0 -0.2425 0.97014 0.0 -0.2425 0.5 0.625
0.93632 0.0 -0.3511 0.93632 0.0 -0.3511 0.5 0.6875
0.89442 0.0 -0.4472 0.89442 0.0 -0.4472 0.5 0.75
0.84799 0.0 -0.5299 0.84799 0.0 -0.5299 0.5 0.8125
0.8 0.0 -0.6000 0.8 0.0 -0.6000 0.5 0.875
0.75257 0.0 -0.6585 0.75257 0.0 -0.6585 0.5 0.9375
0.70710 0.0 -0.7071 0.70710 0.0 -0.7071 0.5 1.0
0.70436 -0.0880 0.70436 0.70436 -0.0880 0.70436 0.5625 0.0
0.74926 -0.0936 0.65561 0.74926 -0.0936 0.65561 0.5625 0.0625
0.79602 -0.0995 0.59702 0.79602 -0.0995 0.59702 0.5625 0.125
0.84327 -0.1054 0.52704 0.84327 -0.1054 0.52704 0.5625 0.1875
0.88888 -0.1111 0.44444 0.88888 -0.1111 0.44444 0.5625 0.25
0.92998 -0.1162 0.34874 0.92998 -0.1162 0.34874 0.5625 0.3125
0.96308 -0.1203 0.24077 0.96308 -0.1203 0.24077 0.5625 0.375
0.98473 -0.1230 0.12309 0.98473 -0.1230 0.12309 0.5625 0.4375
0.99227 -0.1240 0.0 0.99227 -0.1240 0.0 0.5625 0.5
0.98473 -0.1230 -0.1230 0.98473 -0.1230 -0.1230 0.5625 0.5625
0.96308 -0.1203 -0.2407 0.96308 -0.1203 -0.2407 0.5625 0.625
0.92998 -0.1162 -0.3487 0.92998 -0.1162 -0.3487 0.5625 0.6875
0.88888 -0.1111 -0.4444 0.88888 -0.1111 -0.4444 0.5625 0.75
0.84327 -0.1054 -0.5270 0.84327 -0.1054 -0.5270 0.5625 0.8125
0.79602 -0.0995 -0.5970 0.79602 -0.0995 -0.5970 0.5625 0.875
0.74926 -0.0936 -0.6556 0.74926 -0.0936 -0.6556 0.5625 0.9375
0.70436 -0.0880 -0.7043 0.70436 -0.0880 -0.7043 0.5625 1.0
0.69631 -0.1740 0.69631 0.69631 -0.1740 0.69631 0.625 0.0
0.73960 -0.1849 0.64715 0.73960 -0.1849 0.64715 0.625 0.0625
0.78446 -0.1961 0.58834 0.78446 -0.1961 0.58834 0.625 0.125
0.82956 -0.2073 0.51847 0.82956 -0.2073 0.51847 0.625 0.1875
0.87287 -0.2182 0.43643 0.87287 -0.2182 0.43643 0.625 0.25
0.91168 -0.2279 0.34188 0.91168 -0.2279 0.34188 0.625 0.3125
0.94280 -0.2357 0.23570 0.94280 -0.2357 0.23570 0.625 0.375
0.96308 -0.2407 0.12038 0.96308 -0.2407 0.12038 0.625 0.4375
0.97014 -0.2425 0.0 0.97014 -0.2425 0.0 0.625 0.5
0.96308 -0.2407 -0.1203 0.96308 -0.2407 -0.1203 0.625 0.5625
0.94280 -0.2357 -0.2357 0.94280 -0.2357 -0.2357 0.625 0.625
0.91168 -0.2279 -0.3418 0.91168 -0.2279 -0.3418 0.625 0.6875
0.87287 -0.2182 -0.4364 0.87287 -0.2182 -0.4364 0.625 0.75
0.82956 -0.2073 -0.5184 0.82956 -0.2073 -0.5184 0.625 0.8125
0.78446 -0.1961 -0.5883 0.78446 -0.1961 -0.5883 0.625 0.875
0.73960 -0.1849 -0.6471 0.73960 -0.1849 -0.6471 0.625 0.9375
0.69631 -0.1740 -0.6963 0.69631 -0.1740 -0.6963 0.625 1.0
0.68348 -0.2563 0.68348 0.68348 -0.2563 0.68348 0.6875 0.0
0.72428 -0.2716 0.63375 0.72428 -0.2716 0.63375 0.6875 0.0625
0.76626 -0.2873 0.57469 0.76626 -0.2873 0.57469 0.6875 0.125
0.80812 -0.3030 0.50507 0.80812 -0.3030 0.50507 0.6875 0.1875
0.84799 -0.3179 0.42399 0.84799 -0.3179 0.42399 0.6875 0.25
0.88345 -0.3312 0.33129 0.88345 -0.3312 0.33129 0.6875 0.3125
0.91168 -0.3418 0.22792 0.91168 -0.3418 0.22792 0.6875 0.375
0.92998 -0.3487 0.11624 0.92998 -0.3487 0.11624 0.6875 0.4375
0.93632 -0.3511 0.0 0.93632 -0.3511 0.0 0.6875 0.5
0.92998 -0.3487 -0.1162 0.92998 -0.3487 -0.1162 0.6875 0.5625
0.91168 -0.3418 -0.2279 0.91168 -0.3418 -0.2279 0.6875 0.625
0.88345 -0.3312 -0.3312 0.88345 -0.3312 -0.3312 0.6875 0.6875
0.84799 -0.3179 -0.4239 0.84799 -0.3179 -0.4239 0.6875 0.75
0.80812 -0.3030 -0.5050 0.80812 -0.3030 -0.5050 0.6875 0.8125
0.76626 -0.2873 -0.5746 0.76626 -0.2873 -0.5746 0.6875 0.875
0.72428 -0.2716 -0.6337 0.72428 -0.2716 -0.6337 0.6875 0.9375
0.68348 -0.2563 -0.6834 0.68348 -0.2563 -0.6834 0.6875 1.0
0.66666 -0.3333 0.66666 0.66666 -0.3333 0.66666 0.75 0.0
0.70436 -0.3521 0.61631 0.70436 -0.3521 0.61631 0.75 0.0625
0.74278 -0.3713 0.55708 0.74278 -0.3713 0.55708 0.75 0.125
0.78072 -0.3903 0.48795 0.78072 -0.3903 0.48795 0.75 0.1875
0.81649 -0.4082 0.40824 0.81649 -0.4082 0.40824 0.75 0.25
0.84799 -0.4239 0.31799 0.84799 -0.4239 0.31799 0.75 0.3125
0.87287 -0.4364 0.21821 0.87287 -0.4364 0.21821 0.75 0.375
0.88888 -0.4444 0.11111 0.88888 -0.4444 0.11111 0.75 0.4375
0.89442 -0.4472 0.0 0.89442 -0.4472 0.0 0.75 0.5
0.88888 -0.4444 -0.1111 0.88888 -0.4444 -0.1111 0.75 0.5625
0.87287 -0.4364 -0.2182 0.87287 -0.4364 -0.2182 0.75 0.625
0.84799 -0.4239 -0.3179 0.84799 -0.4239 -0.3179 0.75 0.6875
0.81649 -0.4082 -0.4082 0.81649 -0.4082 -0.4082 0.75 0.75
0.78072 -0.3903 -0.4879 0.78072 -0.3903 -0.4879 0.75 0.8125
0.74278 -0.3713 -0.5570 0.74278 -0.3713 -0.5570 0.75 0.875
0.70436 -0.3521 -0.6163 0.70436 -0.3521 -0.6163 0.75 0.9375
0.66666 -0.3333 -0.6666 0.66666 -0.3333 -0.6666 0.75 1.0
0.64676 -0.4042 0.64676 0.64676 -0.4042 0.64676 0.8125 0.0
0.68100 -0.4256 0.59587 0.68100 -0.4256 0.59587 0.8125 0.0625
0.71554 -0.4472 0.53665 0.71554 -0.4472 0.53665 0.8125 0.125
0.74926 -0.4682 0.46829 0.74926 -0.4682 0.46829 0.8125 0.1875
0.78072 -0.4879 0.39036 0.78072 -0.4879 0.39036 0.8125 0.25
0.80812 -0.5050 0.30304 0.80812 -0.5050 0.30304 0.8125 0.3125
0.82956 -0.5184 0.20739 0.82956 -0.5184 0.20739 0.8125 0.375
0.84327 -0.5270 0.10540 0.84327 -0.5270 0.10540 0.8125 0.4375
0.84799 -0.5299 0.0 0.84799 -0.5299 0.0 0.8125 0.5
0.84327 -0.5270 -0.1054 0.84327 -0.5270 -0.1054 0.8125 0.5625
0.82956 -0.5184 -0.2073 0.82956 -0.5184 -0.2073 0.8125 0.625
0.80812 -0.5050 -0.3030 0.80812 -0.5050 -0.3030 0.8125 0.6875
0.78072 -0.4879 -0.3903 0.78072 -0.4879 -0.3903 0.8125 0.75
0.74926 -0.4682 -0.4682 0.74926 -0.4682 -0.4682 0.8125 0.8125
0.71554 -0.4472 -0.5366 0.71554 -0.4472 -0.5366 0.8125 0.875
0.68100 -0.4256 -0.5958 0.68100 -0.4256 -0.5958 0.8125 0.9375
0.64676 -0.4042 -0.6467 0.64676 -0.4042 -0.6467 0.8125 1.0
0.62469 -0.4685 0.62469 0.62469 -0.4685 0.62469 0.875 0.0
0.65538 -0.4915 0.57346 0.65538 -0.4915 0.57346 0.875 0.0625
0.68599 -0.5144 0.51449 0.68599 -0.5144 0.51449 0.875 0.125
0.71554 -0.5366 0.44721 0.71554 -0.5366 0.44721 0.875 0.1875
0.74278 -0.5570 0.37139 0.74278 -0.5570 0.37139 0.875 0.25
0.76626 -0.5746 0.28734 0.76626 -0.5746 0.28734 0.875 0.3125
0.78446 -0.5883 0.19611 0.78446 -0.5883 0.19611 0.875 0.375
0.79602 -0.5970 0.09950 0.79602 -0.5970 0.09950 0.875 0.4375
0.8 -0.6000 0.0 0.8 -0.6000 0.0 0.875 0.5
0.79602 -0.5970 -0.0995 0.79602 -0.5970 -0.0995 0.875 0.5625
0.78446 -0.5883 -0.1961 0.78446 -0.5883 -0.1961 0.875 0.625
0.76626 -0.5746 -0.2873 0.76626 -0.5746 -0.2873 0.875 0.6875
0.74278 -0.5570 -0.3713 0.74278 -0.5570 -0.3713 0.875 0.75
0.71554 -0.5366 -0.4472 0.71554 -0.5366 -0.4472 0.875 0.8125
0.68599 -0.5144 -0.5144 0.68599 -0.5144 -0.5144 0.875 0.875
0.65538 -0.4915 -0.5734 0.65538 -0.4915 -0.5734 0.875 0.9375
0.62469 -0.4685 -0.6246 0.62469 -0.4685 -0.6246 0.875 1.0
0.60131 -0.5261 0.60131 0.60131 -0.5261 0.60131 0.9375 0.0
0.62853 -0.5499 0.54997 0.62853 -0.5499 0.54997 0.9375 0.0625
0.65538 -0.5734 0.49153 0.65538 -0.5734 0.49153 0.9375 0.125
0.68100 -0.5958 0.42562 0.68100 -0.5958 0.42562 0.9375 0.1875
0.70436 -0.6163 0.35218 0.70436 -0.6163 0.35218 0.9375 0.25
0.72428 -0.6337 0.27160 0.72428 -0.6337 0.27160 0.9375 0.3125
0.73960 -0.6471 0.18490 0.73960 -0.6471 0.18490 0.9375 0.375
0.74926 -0.6556 0.09365 0.74926 -0.6556 0.09365 0.9375 0.4375
0.75257 -0.6585 0.0 0.75257 -0.6585 0.0 0.9375 0.5
0.74926 -0.6556 -0.0936 0.74926 -0.6556 -0.0936 0.9375 0.5625
0.73960 -0.6471 -0.1849 0.73960 -0.6471 -0.1849 0.9375 0.625
0.72428 -0.6337 -0.2716 0.72428 -0.6337 -0.2716 0.9375 0.6875
0.70436 -0.6163 -0.3521 0.70436 -0.6163 -0.3521 0.9375 0.75
0.68100 -0.5958 -0.4256 0.68100 -0.5958 -0.4256 0.9375 0.8125
0.65538 -0.5734 -0.4915 0.65538 -0.5734 -0.4915 0.9375 0.875
0.62853 -0.5499 -0.5499 0.62853 -0.5499 -0.5499 0.9375 0.9375
0.60131 -0.5261 -0.6013 0.60131 -0.5261 -0.6013 0.9375 1.0
0.57735 -0.5773 0.57735 0.57735 -0.5773 0.57735 1.0 0.0
0.60131 -0.6013 0.52615 0.60131 -0.6013 0.52615 1.0 0.0625
0.62469 -0.6246 0.46852 0.62469 -0.6246 0.46852 1.0 0.125
0.64676 -0.6467 0.40422 0.64676 -0.6467 0.40422 1.0 0.1875
0.66666 -0.6666 0.33333 0.66666 -0.6666 0.33333 1.0 0.25
0.68348 -0.6834 0.25630 0.68348 -0.6834 0.25630 1.0 0.3125
0.69631 -0.6963 0.17407 0.69631 -0.6963 0.17407 1.0 0.375
0.70436 -0.7043 0.08804 0.70436 -0.7043 0.08804 1.0 0.4375
0.70710 -0.7071 0.0 0.70710 -0.7071 0.0 1.0 0.5
0.70436 -0.7043 -0.0880 0.70436 -0.7043 -0.0880 1.0 0.5625
0.69631 -0.6963 -0.1740 0.69631 -0.6963 -0.1740 1.0 0.625
0.68348 -0.6834 -0.2563 0.68348 -0.6834 -0.2563 1.0 0.6875
0.66666 -0.6666 -0.3333 0.66666 -0.6666 -0.3333 1.0 0.75
0.64676 -0.6467 -0.4042 0.64676 -0.6467 -0.4042 1.0 0.8125
0.62469 -0.6246 -0.4685 0.62469 -0.6246 -0.4685 1.0 0.875
0.60131 -0.6013 -0.5261 0.60131 -0.6013 -0.5261 1.0 0.9375
0.57735 -0.5773 -0.5773 0.57735 -0.5773 -0.5773 1.0 1.0
3 0 1 17
3 17 1 18
3 1 2 18
3 18 2 19
3 2 3 19
3 19 3 20
3 3 4 20
3 20 4 21
3 4 5 21
3 21 5 22
3 5 6 22
3 22 6 23
3 6 7 23
3 23 7 24
3 7 8 24
3 24 8 25
3 8 9 25
3 25 9 26
3 9 10 26
3 26 10 27
3 10 11 27
3 27 11 28
3 11 12 28
3 28 12 29
3 12 13 29
3 29 13 30
3 13 14 30
3 30 14 31
3 14 15 31
3 31 15 32
3 15 16 32
3 32 16 33
3 17 18 34
3 34 18 35
3 18 19 35
3 35 19 36
3 19 20 36
3 36 20 37
3 20 21 37
3 37 21 38
3 21 22 38
3 38 22 39
3 22 23 39
3 39 23 40
3 23 24 40
3 40 24 41
3 24 25 41
3 41 25 42
3 25 26 42
3 42 26 43
3 26 27 43
3 43 27 44
3 27 28 44
3 44 28 45
3 28 29 45
3 45 29 46
3 29 30 46
3 46 30 47
3 30 31 47
3 47 31 48
3 31 32 48
3 48 32 49
3 32 33 49
3 49 33 50
3 34 35 51
3 51 35 52
3 35 36 52
3 52 36 53
3 36 37 53
3 53 37 54
3 37 38 54
3 54 38 55
3 38 39 55
3 55 39 56
3 39 40 56
3 56 40 57
3 40 41 57
3 57 41 58
3 41 42 58
3 58 42 59
3 42 43 59
3 59 43 60
3 43 44 60
3 60 44 61
3 44 45 61
3 61 45 62
3 45 46 62
3 62 46 63
3 46 47 63
3 63 47 64
3 47 48 64
3 64 48 65
3 48 49 65
3 65 49 66
3 49 50 66
3 66 50 67
3 51 52 68
3 68 52 69
3 52 53 69
3 69 53 70
3 53 54 70
3 70 54 71
3 54 55 71
3 71 55 72
3 55 56 72
3 72 56 73
3 56 57 73
3 73 57 74
3 57 58 74
3 74 58 75
3 58 59 75
3 75 59 76
3 59 60 76
3 76 60 77
3 60 61 77
3 77 61 78
3 61 62 78
3 78 62 79
3 62 63 79
3 79 63 80
3 63 64 80
3 80 64 81
3 64 65 81
3 81 65 82
3 65 66 82
3 82 66 83
3 66 67 83
3 83 67 84
3 68 69 85
3 85 69 86
3 69 70 86
3 86 70 87
3 70 71 87
3 87 71 88
3 71 72 88
3 88 72 89
3 72 73 89
3 89 73 90
3 73 74 90
3 90 74 91
3 74 75 91
3 91 75 92
3 75 76 92
3 92 76 93
3 76 77 93
3 93 77 94
3 77 78 94
3 94 78 95
3 78 79 95
3 95 79 96
3 79 80 96
3 96 80 97
3 80 81 97
3 97 81 98
3 81 82 98
3 98 82 99
3 82 83 99
3 99 83 100
3 83 84 100
3 100 84 101
3 85 86 102
3 102 86 103
3 86 87 103
3 103 87 104
3 87 88 104
3 104 88 105
3 88 89 105
3 105 89 106
3 89 90 106
3 106 90 107
3 90 91 107
3 107 91 108
3 91 92 108
3 108 92 109
3 92 93 109
3 109 93 110
3 93 94 110
3 110 94 111
3 94 95 111
3 111 95 112
3 95 96 112
3 112 96 113
3 96 97 113
3 113 97 114
3 97 98 114
3 114 98 115
3 98 99 115
3 115 99 116
3 99 100 116
3 116 100 117
3 100 101 117
3 117 101 118
3 102 103 119
3 119 103 120
3 103 104 120
3 120 104 121
3 104 105 121
3 121 105 122
3 105 106 122
3 122 106 123
3 106 107 123
3 123 107 124
3 107 108 124
3 124 108 125
3 108 109 125
3 125 109 126
3 109 110 126
3 126 110 127
3 110 111 127
3 127 111 128
3 111 112 128
3 128 112 129
3 112 113 129
3 129 113 130
3 113 114 130
3 130 114 131
3 114 115 131
3 131 115 132
3 115 116 132
3 132 116 133
3 116 117 133
3 133 117 134
3 117 118 134
3 134 118 135
3 119 120 136
3 136 120 137
3 120 121 137
3 137 121 138
3 121 122 138
3 138 122 139
3 122 123 139
3 139 123 140
3 123 124 140
3 140 124 141
3 124 125 141
3 141 125 142
3 125 126 142
3 142 126 143
3 126 127 143
3 143 127 144
3 127 128 144
3 144 128 145
3 128 129 145
3 145 129 146
3 129 130 146
3 146 130 147
3 130 131 147
3 147 131 148
3 131 132 148
3 148 132 149
3 132 133 149
3 149 133 150
3 133 134 150
3 150 134 151
3 134 135 151
3 151 135 152
3 136 137 153
3 153 137 154
3 137 138 154
3 154 138 155
3 138 139 155
3 155 139 156
3 139 140 156
3 156 140 157
3 140 141 157
3 157 141 158
3 141 142 158
3 158 142 159
3 142 143 159
3 159 143 160
3 143 144 160
3 160 144 161
3 144 145 161
3 161 145 162
3 145 146 162
3 162 146 163
3 146 147 163
3 163 147 164
3 147 148 164
3 164 148 165
3 148 149 165
3 165 149 166
3 149 150 166
3 166 150 167
3 150 151 167
3 167 151 168
3 151 152 168
3 168 152 169
3 153 154 170
3 170 154 171
3 154 155 171
3 171 155 172
3 155 156 172
3 172 156 173
3 156 157 173
3 173 157 174
3 157 158 174
3 174 158 175
3 158 159 175
3 175 159 176
3 159 160 176
3 176 160 177
3 160 161 177
3 177 161 178
3 161 162 178
3 178 162 179
3 162 163 179
3 179 163 180
3 163 164 180
3 180 164 181
3 164 165 181
3 181 165 182
3 165 166 182
3 182 166 183
3 166 167 183
3 183 167 184
3 167 168 184
3 184 168 185
3 168 169 185
3 185 169 186
3 170 171 187
3 187 171 188
3 171 172 188
3 188 172 189
3 172 173 189
3 189 173 190
3 173 174 190
3 190 174 191
3 174 175 191
3 191 175 192
3 175 176 192
3 192 176 193
3 176 177 193
3 193 177 194
3 177 178 194
3 194 178 195
3 178 179 195
3 195 179 196
3 179 180 196
3 196 180 197
3 180 181 197
3 197 181 198
3 181 182 198
3 198 182 199
3 182 183 199
3 199 183 200
3 183 184 200
3 200 184 201
3 184 185 201
3 201 185 202
3 185 186 202
3 202 186 203
3 187 188 204
3 204 188 205
3 188 189 205
3 205 189 206
3 189 190 206
3 206 190 207
3 190 191 207
3 207 191 208
3 191 192 208
3 208 192 209
3 192 193 209
3 209 193 210
3 193 194 210
3 210 194 211
3 194 195 211
3 211 195 212
3 195 196 212
3 212 196 213
3 196 197 213
3 213 197 214
3 197 198 214
3 214 198 215
3 198 199 215
3 215 199 216
3 199 200 216
3 216 200 217
3 200 201 217
3 217 201 218
3 201 202 218
3 218 202 219
3 202 203 219
3 219 203 220
3 204 205 221
3 221 205 222
3 205 206 222
3 222 206 223
3 206 207 223
3 223 207 224
3 207 208 224
3 224 208 225
3 208 209 225
3 225 209 226
3 209 210 226
3 226 210 227
3 210 211 227
3 227 211 228
3 211 212 228
3 228 212 229
3 212 213 229
3 229 213 230
3 213 214 230
3 230 214 231
3 214 215 231
3 231 215 232
3 215 216 232
3 232 216 233
3 216 217 233
3 233 217 234
3 217 218 234
3 234 218 235
3 218 219 235
3 235 219 236
3 219 220 236
3 236 220 237
3 221 222 238
3 238 222 239
3 222 223 239
3 239 223 240
3 223 224 240
3 240 224 241
3 224 225 241
3 241 225 242
3 225 226 242
3 242 226 243
3 226 227 243
3 243 227 244
3 227 228 244
3 244 228 245
3 228 229 245
3 245 229 246
3 229 230 246
3 246 230 247
3 230 231 247
3 247 231 248
3 231 232 248
3 248 232 249
3 232 233 249
3 249 233 250
3 233 234 250
3 250 234 251
3 234 235 251
3 251 235 252
3 235 236 252
3 252 236 253
3 236 237 253
3 253 237 254
3 238 239 255
3 255 239 256
3 239 240 256
3 256 240 257
3 240 241 257
3 257 241 258
3 241 242 258
3 258 242 259
3 242 243 259
3 259 243 260
3 243 244 260
3 260 244 261
3 244 245 261
3 261 245 262
3 245 246 262
3 262 246 263
3 246 247 263
3 263 247 264
3 247 248 264
3 264 248 265
3 248 249 265
3 265 249 266
3 249 250 266
3 266 250 267
3 250 251 267
3 267 251 268
3 251 252 268
3 268 252 269
3 252 253 269
3 269 253 270
3 253 254 270
3 270 254 271
3 255 256 272
3 272 256 273
3 256 257 273
3 273 257 274
3 257 258 274
3 274 258 275
3 258 259 275
3 275 259 276
3 259 260 276
3 276 260 277
3 260 261 277
3 277 261 278
3 261 262 278
3 278 262 279
3 262 263 279
3 279 263 280
3 263 264 280
3 280 264 281
3 264 265 281
3 281 265 282
3 265 266 282
3 282 266 283
3 266 267 283
3 283 267 284
3 267 268 284
3 284 268 285
3 268 269 285
3 285 269 286
3 269 270 286
3 286 270 287
3 270 271 287
3 287 271 288
